<?xml version="1.0" standalone="no"?>
<!DOCTYPE svg PUBLIC "-//W3C//DTD SVG 20010904//EN"
 "http://www.w3.org/TR/2001/REC-SVG-20010904/DTD/svg10.dtd">
<svg version="1.0" xmlns="http://www.w3.org/2000/svg"
 width="300.000000pt" height="291.000000pt" viewBox="0 0 300.000000 291.000000"
 preserveAspectRatio="xMidYMid meet">
<metadata>
Created by potrace 1.10, written by Peter Selinger 2001-2011
</metadata>
<g transform="translate(0.000000,291.000000) scale(0.100000,-0.100000)"
fill="#000000" stroke="none">
<path d="M1360 2676 c-67 -14 -112 -44 -134 -90 -9 -18 -32 -89 -51 -157 -21
-71 -43 -130 -53 -137 -56 -43 -155 -92 -184 -92 -18 0 -82 14 -143 30 -133
36 -167 37 -225 8 -35 -18 -58 -42 -102 -108 -60 -89 -138 -256 -138 -293 1
-47 42 -109 139 -209 l100 -103 1 -101 0 -102 -93 -97 c-155 -163 -166 -194
-114 -316 45 -102 109 -208 162 -267 39 -43 45 -46 104 -50 48 -3 93 3 195 28
74 18 140 30 147 26 8 -3 48 -25 89 -49 l75 -43 23 -79 c13 -44 32 -108 41
-142 22 -75 39 -103 88 -140 l36 -28 197 0 197 0 36 28 c54 41 65 62 111 220
l42 142 75 42 c41 24 80 46 88 49 7 4 73 -8 147 -26 205 -50 255 -40 337 66
43 57 144 254 153 301 11 57 -13 99 -127 220 l-109 117 0 100 0 99 100 103
c98 101 139 164 140 213 0 39 -76 200 -138 291 -63 93 -111 130 -173 130 -20
0 -89 -13 -152 -30 -64 -16 -130 -30 -147 -30 -19 0 -57 15 -93 37 -34 20 -71
42 -82 49 -15 8 -31 48 -59 145 -21 74 -45 146 -52 161 -20 38 -68 69 -133 84
-69 17 -246 17 -321 0z m357 -49 c47 -25 69 -59 98 -155 50 -166 56 -179 83
-204 42 -38 148 -99 184 -104 20 -4 79 6 153 25 194 50 226 42 305 -76 60 -89
119 -209 127 -256 8 -52 -20 -99 -123 -206 -50 -53 -96 -106 -103 -118 -13
-26 -15 -181 -2 -215 5 -13 52 -70 105 -126 111 -119 130 -150 123 -202 -6
-44 -71 -178 -128 -261 -74 -110 -126 -124 -295 -79 -62 16 -129 30 -148 30
-39 0 -169 -66 -204 -103 -12 -13 -38 -78 -61 -156 -43 -141 -57 -172 -94
-195 -33 -21 -156 -32 -289 -25 -170 10 -173 12 -247 254 -22 73 -38 108 -58
126 -44 41 -158 99 -193 99 -17 0 -89 -14 -159 -31 -179 -44 -212 -34 -287 82
-16 24 -32 46 -35 49 -18 15 -83 172 -87 211 -6 61 10 89 111 196 119 126 117
122 117 230 0 50 -4 102 -9 115 -5 13 -51 67 -102 121 -91 95 -128 151 -129
191 0 23 69 171 112 241 17 28 47 67 66 87 50 53 89 56 232 22 164 -40 188
-38 287 20 45 27 89 58 97 71 8 12 29 71 46 131 49 174 61 192 137 220 57 20
326 14 370 -9z"/>
<path d="M1393 2561 c-59 -15 -63 -22 -127 -253 -22 -77 -51 -108 -159 -170
-120 -68 -158 -72 -325 -29 -112 29 -124 30 -151 17 -32 -17 -95 -110 -142
-209 -39 -85 -38 -88 81 -217 117 -127 119 -131 120 -273 0 -79 -5 -128 -14
-150 -7 -18 -59 -81 -115 -141 -73 -79 -101 -116 -101 -134 0 -34 96 -206 141
-254 20 -21 44 -38 55 -38 10 0 71 13 134 30 174 45 178 44 355 -54 81 -45
101 -77 144 -231 33 -118 54 -156 92 -166 13 -4 77 -7 142 -8 120 -1 157 7
186 42 10 13 43 111 55 167 30 129 56 161 187 228 67 33 117 52 139 52 19 0
89 -14 155 -30 144 -36 145 -36 179 -9 49 39 156 226 156 274 0 17 -24 50 -83
112 -144 153 -142 148 -144 282 -4 156 4 177 90 269 133 141 140 151 134 191
-5 37 -57 135 -114 216 -49 67 -64 70 -198 35 -154 -40 -210 -40 -283 3 -31
18 -70 39 -87 47 -53 27 -100 83 -115 136 -48 180 -68 232 -97 251 -19 13 -54
18 -142 20 -64 1 -131 -2 -148 -6z m286 -50 c5 -7 18 -52 31 -100 49 -192 73
-232 167 -282 26 -14 74 -40 107 -57 74 -41 119 -41 269 -2 64 17 124 30 134
30 19 0 99 -118 144 -213 l23 -47 -55 -58 c-118 -122 -149 -158 -164 -188 -21
-45 -23 -300 -1 -342 8 -16 61 -78 117 -136 l103 -108 -33 -66 c-35 -71 -118
-202 -129 -202 -3 0 -19 4 -36 10 -75 24 -205 53 -253 57 -48 4 -60 0 -167
-56 -164 -88 -167 -92 -227 -321 -12 -47 -29 -91 -38 -98 -17 -14 -277 -17
-299 -3 -7 4 -28 61 -46 127 -19 65 -39 131 -44 145 -17 44 -63 89 -121 120
-31 16 -81 43 -111 59 -34 18 -70 30 -95 30 -32 0 -178 -33 -291 -65 -18 -6
-29 6 -71 72 -70 110 -103 170 -103 184 0 7 45 58 99 114 134 138 141 153 141
307 0 95 -4 132 -18 160 -9 21 -63 87 -120 148 l-103 110 52 100 c28 54 64
114 79 131 30 36 21 36 190 -6 36 -9 93 -19 127 -22 56 -5 67 -2 120 27 32 18
85 46 117 64 78 41 105 85 145 233 18 65 34 126 37 135 7 24 24 27 177 25 104
-2 140 -5 146 -16z"/>
<path d="M1381 1834 c-297 -107 -392 -472 -180 -698 72 -78 151 -121 247 -137
147 -24 282 22 387 132 79 83 108 151 113 265 9 190 -75 334 -244 419 -53 27
-70 30 -169 32 -81 2 -122 -1 -154 -13z m221 -25 c113 -24 229 -113 277 -211
48 -100 48 -256 -1 -351 -33 -66 -111 -140 -185 -178 -64 -32 -74 -34 -173
-34 -93 0 -111 3 -160 26 -76 36 -144 99 -184 172 -164 295 96 646 426 576z"/>
<path d="M1457 1730 c-90 -23 -175 -90 -219 -172 -19 -35 -23 -59 -23 -133 0
-107 22 -162 92 -226 64 -59 123 -82 213 -83 95 -1 150 23 224 96 76 76 104
172 82 283 -30 152 -219 272 -369 235z m188 -61 c89 -44 155 -149 155 -244 0
-196 -217 -334 -395 -249 -236 111 -207 432 45 515 44 15 144 3 195 -22z"/>
</g>
</svg>
